<!DOCTYPE svg PUBLIC "-//W3C//DTD SVG 1.1//EN" "http://www.w3.org/Graphics/SVG/1.1/DTD/svg11.dtd">
<!-- Uploaded to: SVG Repo, www.svgrepo.com, Transformed by: SVG Repo Mixer Tools -->
<svg fill="#191716" width="100px" height="100px" viewBox="0 0 256 256" id="Flat" xmlns="http://www.w3.org/2000/svg" stroke="#191716">
<g id="SVGRepo_bgCarrier" stroke-width="0"/>
<g id="SVGRepo_tracerCarrier" stroke-linecap="round" stroke-linejoin="round"/>
<g id="SVGRepo_iconCarrier"> <path d="M127.999,27.99512a100,100,0,1,0,55.2959,183.333,4.00018,4.00018,0,1,0-4.42969-6.6621,92.00763,92.00763,0,1,1,41.13379-76.6709c0,31.32324-15.03711,36-24,36s-24-4.67676-24-36v-40a4,4,0,0,0-8,0v14.74841a43.986,43.986,0,1,0,2.81739,45.94226c4.645,14.88452,14.84521,23.30933,29.18261,23.30933,20.03711,0,32-16.44825,32-44A100.11269,100.11269,0,0,0,127.999,27.99512Zm0,136a36,36,0,1,1,36-36A36.04063,36.04063,0,0,1,127.999,163.99512Z"/> </g>
</svg>